<svg xmlns:dc="http://purl.org/dc/elements/1.1/" xmlns:cc="http://creativecommons.org/ns#" xmlns:rdf="http://www.w3.org/1999/02/22-rdf-syntax-ns#" xmlns:svg="http://www.w3.org/2000/svg" xmlns="http://www.w3.org/2000/svg" xmlns:xlink="http://www.w3.org/1999/xlink" id="svg963324" viewBox="0 0 1024 768" height="768px" width="1024px" version="1.1">
  <metadata id="metadata963330">
    <rdf:rdf>
      <cc:work rdf:about="">
        <dc:format>image/svg+xml</dc:format>
        <dc:type rdf:resource="http://purl.org/dc/dcmitype/StillImage"></dc:type>
      </cc:work>
    </rdf:rdf>
  </metadata>
  <defs id="defs963328"></defs>
  <linearGradient spreadMethod="pad" y2="30%" x2="-10%" y1="120%" x1="30%" id="3d_gradient2-logo-e3ebd14e-4d25-4081-a0a4-f1069312792a">
    <stop id="stop963305" stop-opacity="1" stop-color="#ffffff" offset="0%"></stop>
    <stop id="stop963307" stop-opacity="1" stop-color="#000000" offset="100%"></stop>
  </linearGradient>
  <linearGradient gradientTransform="rotate(-30)" spreadMethod="pad" y2="30%" x2="-10%" y1="120%" x1="30%" id="3d_gradient3-logo-e3ebd14e-4d25-4081-a0a4-f1069312792a">
    <stop id="stop963310" stop-opacity="1" stop-color="#ffffff" offset="0%"></stop>
    <stop id="stop963312" stop-opacity="1" stop-color="#cccccc" offset="50%"></stop>
    <stop id="stop963314" stop-opacity="1" stop-color="#000000" offset="100%"></stop>
  </linearGradient>
  <g id="logo-group">
   <g id="logo-center" transform="translate(-5.999999999999886 0)">
      <image xlink:href="" id="icon_container" x="0" y="0" style="display: none;"></image>
      <g id="slogan" style="font-style:normal;font-weight:600;font-size:32px;line-height:1;font-family:Raleway;font-variant-ligatures:none;text-align:center;text-anchor:middle" transform="translate(0 0)">
        <path id="path963332" style="font-style:normal;font-weight:600;font-size:32px;line-height:1;font-family:Raleway;font-variant-ligatures:none;text-align:center;text-anchor:middle" d="m 397.685,0 v -22.72 h 3.584 V 0 Z" stroke-width="0" stroke-linejoin="miter" stroke-miterlimit="2" fill="#2e53a0" stroke="#2e53a0" transform="translate(-5.684341886080802e-14 100.34000000000003) translate(396.568 305.03999999999996) scale(1) translate(-397.685 22.72)"></path>
        <path id="path963334" style="font-style:normal;font-weight:600;font-size:32px;line-height:1;font-family:Raleway;font-variant-ligatures:none;text-align:center;text-anchor:middle" d="m 420.9325,0 h -3.52 v -9.376 q 0,-2.368 -0.768,-3.424 -0.736,-1.088 -2.208,-1.088 -0.768,0 -1.536,0.288 -0.768,0.288 -1.44,0.832 -0.672,0.512 -1.216,1.248 -0.512,0.704 -0.8,1.568 V 0 h -3.52 v -16.736 h 3.2 v 3.36 q 0.96,-1.696 2.784,-2.656 1.824,-0.992 4.032,-0.992 1.504,0 2.464,0.544 0.96,0.544 1.504,1.504 0.576,0.928 0.8,2.176 0.224,1.216 0.224,2.592 z" stroke-width="0" stroke-linejoin="miter" stroke-miterlimit="2" fill="#2e53a0" stroke="#2e53a0" transform="translate(-5.684341886080802e-14 100.34000000000003) translate(404.8075 310.736) scale(1) translate(-405.9245 17.024)"></path>
        <path id="path963336" style="font-style:normal;font-weight:600;font-size:32px;line-height:1;font-family:Raleway;font-variant-ligatures:none;text-align:center;text-anchor:middle" d="m 442.2365,-0.864 q -0.672,0.32 -1.856,0.736 -1.184,0.384 -2.528,0.384 -0.832,0 -1.568,-0.224 -0.736,-0.224 -1.312,-0.672 -0.544,-0.448 -0.864,-1.152 -0.32,-0.736 -0.32,-1.76 v -10.464 h -2.208 v -2.72 h 2.208 v -5.504 h 3.52 v 5.504 h 3.648 v 2.72 h -3.648 v 9.344 q 0.064,0.896 0.544,1.312 0.512,0.384 1.248,0.384 0.736,0 1.408,-0.256 0.672,-0.256 0.992,-0.416 z" stroke-width="0" stroke-linejoin="miter" stroke-miterlimit="2" fill="#2e53a0" stroke="#2e53a0" transform="translate(-5.684341886080802e-14 100.34000000000003) translate(430.46349999999995 305.52) scale(1) translate(-431.5805 22.24)"></path>
        <path id="path963338" style="font-style:normal;font-weight:600;font-size:32px;line-height:1;font-family:Raleway;font-variant-ligatures:none;text-align:center;text-anchor:middle" d="m 451.821,0.32 q -1.952,0 -3.552,-0.672 -1.6,-0.704 -2.752,-1.888 -1.12,-1.184 -1.76,-2.752 -0.608,-1.568 -0.608,-3.328 0,-1.76 0.608,-3.328 0.64,-1.6 1.76,-2.784 1.152,-1.216 2.752,-1.888 1.6,-0.704 3.584,-0.704 1.952,0 3.52,0.704 1.6,0.704 2.72,1.888 1.12,1.152 1.696,2.72 0.608,1.536 0.608,3.232 0,0.384 -0.032,0.736 -0.032,0.32 -0.064,0.544 h -13.408 q 0.096,1.12 0.512,2.016 0.448,0.896 1.12,1.568 0.704,0.64 1.568,0.992 0.896,0.352 1.856,0.352 0.704,0 1.376,-0.16 0.704,-0.192 1.28,-0.512 0.576,-0.352 1.024,-0.832 0.448,-0.48 0.704,-1.056 l 3.008,0.864 q -0.864,1.888 -2.88,3.104 -1.984,1.184 -4.64,1.184 z m 5.088,-9.952 q -0.096,-1.056 -0.544,-1.952 -0.416,-0.896 -1.088,-1.504 -0.672,-0.64 -1.568,-0.992 -0.896,-0.352 -1.888,-0.352 -0.992,0 -1.888,0.352 -0.864,0.352 -1.536,0.992 -0.672,0.608 -1.088,1.504 -0.416,0.896 -0.512,1.952 z" stroke-width="0" stroke-linejoin="miter" stroke-miterlimit="2" fill="#2e53a0" stroke="#2e53a0" transform="translate(-5.684341886080802e-14 100.34000000000003) translate(442.032 310.736) scale(1) translate(-443.149 17.024)"></path>
        <path id="path963340" style="font-style:normal;font-weight:600;font-size:32px;line-height:1;font-family:Raleway;font-variant-ligatures:none;text-align:center;text-anchor:middle" d="m 462.2115,-8.384 q 0,-1.76 0.608,-3.328 0.608,-1.568 1.728,-2.752 1.152,-1.184 2.752,-1.856 1.6,-0.704 3.584,-0.704 2.592,0 4.448,1.152 1.888,1.12 2.816,3.008 l -3.424,1.088 q -0.608,-1.056 -1.632,-1.632 -1.024,-0.608 -2.272,-0.608 -1.056,0 -1.984,0.416 -0.896,0.416 -1.568,1.184 -0.672,0.736 -1.056,1.76 -0.384,1.024 -0.384,2.272 0,1.216 0.384,2.272 0.416,1.024 1.088,1.792 0.704,0.768 1.6,1.216 0.928,0.416 1.952,0.416 0.64,0 1.28,-0.16 0.64,-0.192 1.152,-0.512 0.544,-0.32 0.928,-0.736 0.416,-0.416 0.608,-0.896 l 3.456,1.024 q -0.832,1.888 -2.784,3.104 -1.952,1.184 -4.608,1.184 -1.952,0 -3.552,-0.704 -1.6,-0.704 -2.752,-1.888 -1.12,-1.216 -1.76,-2.784 -0.608,-1.568 -0.608,-3.328 z" stroke-width="0" stroke-linejoin="miter" stroke-miterlimit="2" fill="#2e53a0" stroke="#2e53a0" transform="translate(-5.684341886080802e-14 100.34000000000003) translate(461.0945 310.736) scale(1) translate(-462.2115 17.024)"></path>
        <path id="path963342" style="font-style:normal;font-weight:600;font-size:32px;line-height:1;font-family:Raleway;font-variant-ligatures:none;text-align:center;text-anchor:middle" d="m 496.1825,0 h -3.52 v -9.376 q 0,-2.304 -0.832,-3.392 -0.8,-1.12 -2.336,-1.12 -0.736,0 -1.472,0.288 -0.736,0.288 -1.408,0.832 -0.64,0.512 -1.152,1.248 -0.512,0.704 -0.768,1.568 V 0 h -3.52 v -23.36 h 3.52 v 9.984 q 0.96,-1.728 2.592,-2.688 1.664,-0.96 3.616,-0.96 1.568,0 2.56,0.576 1.024,0.544 1.632,1.472 0.608,0.928 0.832,2.176 0.256,1.216 0.256,2.592 z" stroke-width="0" stroke-linejoin="miter" stroke-miterlimit="2" fill="#2e53a0" stroke="#2e53a0" transform="translate(-5.684341886080802e-14 100.34000000000003) translate(480.0575 304.4) scale(1) translate(-481.1745 23.36)"></path>
        <path id="path963344" style="font-style:normal;font-weight:600;font-size:32px;line-height:1;font-family:Raleway;font-variant-ligatures:none;text-align:center;text-anchor:middle" d="m 528.1635,-16.736 h 3.36 L 524.4835,0 h -2.912 l -3.104,-7.776 -3.104,7.776 h -2.912 l -7.072,-16.736 h 3.36 l 5.408,13.344 2.432,-6.208 -2.912,-7.104 h 2.88 l 1.92,5.248 1.888,-5.248 h 2.88 l -2.88,7.104 2.432,6.208 z" stroke-width="0" stroke-linejoin="miter" stroke-miterlimit="2" fill="#2e53a0" stroke="#2e53a0" transform="translate(-5.684341886080802e-14 100.34000000000003) translate(504.2625 311.024) scale(1) translate(-505.3795 16.736)"></path>
        <path id="path963346" style="font-style:normal;font-weight:600;font-size:32px;line-height:1;font-family:Raleway;font-variant-ligatures:none;text-align:center;text-anchor:middle" d="m 540.821,0.32 q -1.952,0 -3.552,-0.672 -1.6,-0.704 -2.752,-1.888 -1.12,-1.184 -1.76,-2.752 -0.608,-1.568 -0.608,-3.328 0,-1.76 0.608,-3.328 0.64,-1.6 1.76,-2.784 1.152,-1.216 2.752,-1.888 1.6,-0.704 3.584,-0.704 1.952,0 3.52,0.704 1.6,0.704 2.72,1.888 1.12,1.152 1.696,2.72 0.608,1.536 0.608,3.232 0,0.384 -0.032,0.736 -0.032,0.32 -0.064,0.544 h -13.408 q 0.096,1.12 0.512,2.016 0.448,0.896 1.12,1.568 0.704,0.64 1.568,0.992 0.896,0.352 1.856,0.352 0.704,0 1.376,-0.16 0.704,-0.192 1.28,-0.512 0.576,-0.352 1.024,-0.832 0.448,-0.48 0.704,-1.056 l 3.008,0.864 q -0.864,1.888 -2.88,3.104 -1.984,1.184 -4.64,1.184 z m 5.088,-9.952 q -0.096,-1.056 -0.544,-1.952 -0.416,-0.896 -1.088,-1.504 -0.672,-0.64 -1.568,-0.992 -0.896,-0.352 -1.888,-0.352 -0.992,0 -1.888,0.352 -0.864,0.352 -1.536,0.992 -0.672,0.608 -1.088,1.504 -0.416,0.896 -0.512,1.952 z" stroke-width="0" stroke-linejoin="miter" stroke-miterlimit="2" fill="#2e53a0" stroke="#2e53a0" transform="translate(-5.684341886080802e-14 100.34000000000003) translate(531.0319999999999 310.736) scale(1) translate(-532.149 17.024)"></path>
        <path id="path963348" style="font-style:normal;font-weight:600;font-size:32px;line-height:1;font-family:Raleway;font-variant-ligatures:none;text-align:center;text-anchor:middle" d="m 569.4865,-0.864 q -0.672,0.32 -1.856,0.736 -1.184,0.384 -2.528,0.384 -0.832,0 -1.568,-0.224 -0.736,-0.224 -1.312,-0.672 -0.544,-0.448 -0.864,-1.152 -0.32,-0.736 -0.32,-1.76 v -10.464 h -2.208 v -2.72 h 2.208 v -5.504 h 3.52 v 5.504 h 3.648 v 2.72 h -3.648 v 9.344 q 0.064,0.896 0.544,1.312 0.512,0.384 1.248,0.384 0.736,0 1.408,-0.256 0.672,-0.256 0.992,-0.416 z" stroke-width="0" stroke-linejoin="miter" stroke-miterlimit="2" fill="#2e53a0" stroke="#2e53a0" transform="translate(-5.684341886080802e-14 100.34000000000003) translate(557.7135 305.52) scale(1) translate(-558.8305 22.24)"></path>
        <path id="path963350" style="font-style:normal;font-weight:600;font-size:32px;line-height:1;font-family:Raleway;font-variant-ligatures:none;text-align:center;text-anchor:middle" d="m 581.3325,-13.696 q -2.048,0.064 -3.648,0.96 -1.568,0.864 -2.24,2.496 V 0 h -3.52 v -16.736 h 3.264 v 3.744 q 0.864,-1.728 2.24,-2.752 1.408,-1.056 3.008,-1.152 0.32,0 0.512,0 0.224,0 0.384,0.032 z" stroke-width="0" stroke-linejoin="miter" stroke-miterlimit="2" fill="#2e53a0" stroke="#2e53a0" transform="translate(-5.684341886080802e-14 100.34000000000003) translate(570.8074999999999 310.864) scale(1) translate(-571.9245 16.896)"></path>
        <path id="path963352" style="font-style:normal;font-weight:600;font-size:32px;line-height:1;font-family:Raleway;font-variant-ligatures:none;text-align:center;text-anchor:middle" d="m 589.014,0.32 q -2.624,0 -3.968,-1.696 -1.344,-1.728 -1.344,-5.12 v -10.24 h 3.52 V -7.2 q 0,4.512 3.2,4.512 1.504,0 2.848,-0.928 1.344,-0.928 2.08,-2.688 v -10.432 h 3.52 V -4.16 q 0,0.608 0.192,0.864 0.224,0.256 0.768,0.288 V 0 q -0.544,0.096 -0.896,0.128 -0.352,0.032 -0.672,0.032 -0.96,0 -1.632,-0.512 -0.672,-0.544 -0.704,-1.376 l -0.064,-1.664 q -1.12,1.824 -2.912,2.784 -1.792,0.928 -3.936,0.928 z" stroke-width="0" stroke-linejoin="miter" stroke-miterlimit="2" fill="#2e53a0" stroke="#2e53a0" transform="translate(-5.684341886080802e-14 100.34000000000003) translate(582.5849999999999 311.024) scale(1) translate(-583.702 16.736)"></path>
        <path id="path963354" style="font-style:normal;font-weight:600;font-size:32px;line-height:1;font-family:Raleway;font-variant-ligatures:none;text-align:center;text-anchor:middle" d="m 609.442,0.32 q -2.016,0 -4.032,-0.64 -1.984,-0.672 -3.424,-1.888 l 1.408,-2.24 q 1.504,1.088 2.976,1.664 1.472,0.544 3.008,0.544 1.568,0 2.464,-0.608 0.928,-0.608 0.928,-1.728 0,-1.056 -1.024,-1.536 -1.024,-0.48 -3.2,-1.056 -1.568,-0.416 -2.688,-0.8 -1.12,-0.384 -1.824,-0.896 -0.704,-0.512 -1.024,-1.184 -0.32,-0.672 -0.32,-1.632 0,-1.28 0.48,-2.272 0.512,-0.992 1.376,-1.664 0.896,-0.704 2.08,-1.056 1.184,-0.352 2.56,-0.352 1.888,0 3.52,0.576 1.632,0.576 2.912,1.664 l -1.504,2.112 q -2.336,-1.856 -4.96,-1.856 -1.344,0 -2.272,0.576 -0.896,0.544 -0.896,1.76 0,0.512 0.192,0.864 0.192,0.352 0.608,0.608 0.448,0.256 1.12,0.48 0.704,0.192 1.728,0.448 1.696,0.416 2.912,0.832 1.248,0.416 2.048,0.992 0.8,0.544 1.184,1.312 0.384,0.736 0.384,1.792 0,2.4 -1.824,3.808 -1.792,1.376 -4.896,1.376 z" stroke-width="0" stroke-linejoin="miter" stroke-miterlimit="2" fill="#2e53a0" stroke="#2e53a0" transform="translate(-5.684341886080802e-14 100.34000000000003) translate(600.8689999999999 310.736) scale(1) translate(-601.986 17.024)"></path>
        <path id="path963356" style="font-style:normal;font-weight:600;font-size:32px;line-height:1;font-family:Raleway;font-variant-ligatures:none;text-align:center;text-anchor:middle" d="m 628.549,-0.864 q -0.672,0.32 -1.856,0.736 -1.184,0.384 -2.528,0.384 -0.832,0 -1.568,-0.224 -0.736,-0.224 -1.312,-0.672 -0.544,-0.448 -0.864,-1.152 -0.32,-0.736 -0.32,-1.76 v -10.464 h -2.208 v -2.72 h 2.208 v -5.504 h 3.52 v 5.504 h 3.648 v 2.72 h -3.648 v 9.344 q 0.064,0.896 0.544,1.312 0.512,0.384 1.248,0.384 0.736,0 1.408,-0.256 0.672,-0.256 0.992,-0.416 z" stroke-width="0" stroke-linejoin="miter" stroke-miterlimit="2" fill="#2e53a0" stroke="#2e53a0" transform="translate(-5.684341886080802e-14 100.34000000000003) translate(616.776 305.52) scale(1) translate(-617.893 22.24)"></path>
      </g>
      <g id="title" style="font-style:normal;font-weight:normal;font-size:72px;line-height:1;font-family:'Brandmark Sans 25';font-variant-ligatures:normal;text-align:center;text-anchor:middle" transform="translate(0 0)">
        <path id="path963359" style="font-style:normal;font-weight:normal;font-size:72px;line-height:1;font-family:'Brandmark Sans 25';font-variant-ligatures:normal;text-align:center;text-anchor:middle" d="m 252.359,-50.4 h -57.96 c -0.792,0 -1.512,0.648 -1.512,1.512 v 7.128 c 0,0.864 0.72,1.512 1.512,1.512 h 23.904 v 38.736 c 0,0.792 0.648,1.512 1.512,1.512 h 7.128 c 0.864,0 1.512,-0.72 1.512,-1.512 v -38.736 h 23.904 c 0.792,0 1.512,-0.648 1.512,-1.512 v -7.128 c 0,-0.864 -0.72,-1.512 -1.512,-1.512 z" stroke-width="0" stroke-linejoin="miter" stroke-miterlimit="2" fill="#2e53a0" stroke="#2e53a0" transform="translate(0 30.140000000000043) translate(225.55666249999993 309.43999999999994) scale(0.9) translate(-192.887 50.4)"></path>
        <path id="path963361" style="font-style:normal;font-weight:normal;font-size:72px;line-height:1;font-family:'Brandmark Sans 25';font-variant-ligatures:normal;text-align:center;text-anchor:middle" d="m 318.86338,-50.4 h -57.45601 c -0.792,0 -1.512,0.648 -1.512,1.512 v 7.128 c 0,0.864 0.72,1.512 1.512,1.512 h 57.45601 c 0.86399,0 1.584,-0.648 1.584,-1.512 v -7.128 c 0,-0.864 -0.72001,-1.512 -1.584,-1.512 z m 0,40.248 h -48.81601 v -9.936 h 38.664 c 0.864,0 1.51201,-0.72 1.51201,-1.584 v -7.056 c 0,-0.864 -0.64801,-1.584 -1.51201,-1.584 h -47.304 c -0.792,0 -1.512,0.72 -1.512,1.584 v 27.216 c 0,0.792 0.72,1.512 1.512,1.512 h 57.45601 c 0.86399,0 1.584,-0.72 1.584,-1.512 V -8.64 c 0,-0.864 -0.72001,-1.512 -1.584,-1.512 z" stroke-width="0" stroke-linejoin="miter" stroke-miterlimit="2" fill="#355ea8" stroke="#355ea8" transform="translate(0 30.140000000000043) translate(285.86419549999994 309.43999999999994) scale(0.9) translate(-259.89537 50.4)"></path>
        <path id="path963363" style="font-style:normal;font-weight:normal;font-size:72px;line-height:1;font-family:'Brandmark Sans 25';font-variant-ligatures:normal;text-align:center;text-anchor:middle" d="m 390.17263,-2.304 -10.72801,-18.864 c -0.864,-1.512 -1.87199,-2.88 -3.096,-4.032 1.22401,-1.152 2.232,-2.52 3.096,-4.032 l 10.72801,-18.864 c 0.57599,-1.008 -0.144,-2.304 -1.36801,-2.304 h -8.13599 c -0.57601,0 -1.08001,0.288 -1.368,0.792 l -8.71201,15.408 c -1.368,2.376 -3.96,3.888 -6.696,3.888 h -24.912 v -18.576 c 0,-0.864 -0.648,-1.512 -1.512,-1.512 h -7.128 c -0.79199,0 -1.512,0.648 -1.512,1.512 v 47.376 c 0,0.792 0.72001,1.512 1.512,1.512 h 7.128 c 0.864,0 1.512,-0.72 1.512,-1.512 v -18.576 h 24.912 c 2.736,0 5.328,1.512 6.696,3.888 l 8.71201,15.408 c 0.28799,0.504 0.79199,0.792 1.368,0.792 h 8.13599 c 1.22401,0 1.944,-1.296 1.36801,-2.304 z" stroke-width="0" stroke-linejoin="miter" stroke-miterlimit="2" fill="#3c68af" stroke="#3c68af" transform="translate(0 30.140000000000043) translate(347.9041204999999 309.43999999999994) scale(0.9) translate(-328.82862 50.4)"></path>
        <path id="path963365" style="font-style:normal;font-weight:normal;font-size:72px;line-height:1;font-family:'Brandmark Sans 25';font-variant-ligatures:normal;text-align:center;text-anchor:middle" d="m 461.654,-50.4 h -7.128 c -0.864,0 -1.584,0.648 -1.584,1.512 v 39.744 c -5.616,0 -11.448,-9.072 -17.064,-17.784 C 428.39,-38.448 420.686,-50.4 408.662,-50.4 h -8.64 c -0.792,0 -1.512,0.648 -1.512,1.512 v 47.376 c 0,0.792 0.72,1.512 1.512,1.512 h 7.128 c 0.864,0 1.512,-0.72 1.512,-1.512 v -39.744 c 7.056,0 13.392,9.864 19.512,19.296 6.912,10.8 14.112,21.96 24.768,21.96 h 8.712 c 0.792,0 1.512,-0.72 1.512,-1.512 v -47.376 c 0,-0.864 -0.72,-1.512 -1.512,-1.512 z" stroke-width="0" stroke-linejoin="miter" stroke-miterlimit="2" fill="#4373b7" stroke="#4373b7" transform="translate(0 30.140000000000043) translate(410.6173624999999 309.43999999999994) scale(0.9) translate(-398.51 50.4)"></path>
        <path id="path963367" style="font-style:normal;font-weight:normal;font-size:72px;line-height:1;font-family:'Brandmark Sans 25';font-variant-ligatures:normal;text-align:center;text-anchor:middle" d="m 517.49675,-50.4 h -24.408 c -11.088,0 -20.088,9 -20.088,20.088 v 10.224 c 0,11.088 9,20.088 20.088,20.088 h 24.408 c 11.088,0 20.088,-9 20.088,-20.088 v -10.224 c 0,-11.088 -9,-20.088 -20.088,-20.088 z m 9.936,20.088 v 10.224 c 0,5.472 -4.464,9.936 -9.936,9.936 h -24.408 c -5.472,0 -9.936,-4.464 -9.936,-9.936 v -10.224 c 0,-5.472 4.464,-9.936 9.936,-9.936 h 24.408 c 5.472,0 9.936,4.464 9.936,9.936 z" stroke-width="0" stroke-linejoin="miter" stroke-miterlimit="2" fill="#4a7ebe" stroke="#4a7ebe" transform="translate(0 30.140000000000043) translate(477.6590374999999 309.43999999999994) scale(0.9) translate(-473.00075 50.4)"></path>
        <path id="path963369" style="font-style:normal;font-weight:normal;font-size:72px;line-height:1;font-family:'Brandmark Sans 25';font-variant-ligatures:normal;text-align:center;text-anchor:middle" d="m 599.19988,-10.152 h -35.208 c -3.888,0 -7.12801,-3.24 -7.12801,-7.128 v -31.608 c 0,-0.792 -0.648,-1.512 -1.512,-1.512 h -7.12799 c -0.79201,0 -1.51201,0.72 -1.51201,1.512 v 31.608 c 0,9.504 7.77601,17.28 17.28001,17.28 h 35.208 c 0.864,0 1.51199,-0.648 1.51199,-1.512 V -8.64 c 0,-0.864 -0.64799,-1.512 -1.51199,-1.512 z" stroke-width="0" stroke-linejoin="miter" stroke-miterlimit="2" fill="#5088c6" stroke="#5088c6" transform="translate(0 30.140000000000043) translate(543.9990455 309.43999999999994) scale(0.9) translate(-546.71187 50.4)"></path>
        <path id="path963371" style="font-style:normal;font-weight:normal;font-size:72px;line-height:1;font-family:'Brandmark Sans 25';font-variant-ligatures:normal;text-align:center;text-anchor:middle" d="m 649.403,-50.4 h -24.408 c -11.088,0 -20.088,9 -20.088,20.088 v 10.224 C 604.907,-9 613.907,0 624.995,0 h 24.408 c 11.088,0 20.088,-9 20.088,-20.088 v -10.224 c 0,-11.088 -9,-20.088 -20.088,-20.088 z m 9.936,20.088 v 10.224 c 0,5.472 -4.464,9.936 -9.936,9.936 h -24.408 c -5.472,0 -9.936,-4.464 -9.936,-9.936 v -10.224 c 0,-5.472 4.464,-9.936 9.936,-9.936 h 24.408 c 5.472,0 9.936,4.464 9.936,9.936 z" stroke-width="0" stroke-linejoin="miter" stroke-miterlimit="2" fill="#5793cd" stroke="#5793cd" transform="translate(0 30.140000000000043) translate(596.3746625 309.43999999999994) scale(0.9) translate(-604.907 50.4)"></path>
        <path id="path963373" style="font-style:normal;font-weight:normal;font-size:72px;line-height:1;font-family:'Brandmark Sans 25';font-variant-ligatures:normal;text-align:center;text-anchor:middle" d="m 723.69012,-30.312 h -23.328 v 10.224 h 23.76 c 2.952,0 5.256,2.448 4.968,5.472 -0.28799,2.52 -2.592,4.464 -5.184,4.464 h -26.784 c -5.11199,0 -9.216,-4.104 -9.216,-9.216 v -11.664 c 0,-5.112 4.10401,-9.216 9.216,-9.216 h 39.6 c 0.86401,0 1.58401,-0.648 1.58401,-1.512 v -7.128 c 0,-0.792 -0.72,-1.512 -1.58401,-1.512 h -39.6 c -10.72799,0 -19.36799,8.64 -19.36799,19.368 v 11.664 c 0,10.728 8.64,19.368 19.36799,19.368 h 27 c 8.64,0 15.552,-7.2 15.12,-15.912 -0.36,-8.136 -7.41599,-14.4 -15.552,-14.4 z" stroke-width="0" stroke-linejoin="miter" stroke-miterlimit="2" fill="#5e9ed5" stroke="#5e9ed5" transform="translate(0 30.140000000000043) translate(661.9370795 309.43999999999994) scale(0.9) translate(-677.75413 50.4)"></path>
        <path id="path963375" style="font-style:normal;font-weight:normal;font-size:72px;line-height:1;font-family:'Brandmark Sans 25';font-variant-ligatures:normal;text-align:center;text-anchor:middle" d="m 757.5155,-50.4 h -7.128 c -0.792,0 -1.512,0.648 -1.512,1.512 v 47.376 c 0,0.792 0.72,1.512 1.512,1.512 h 7.128 c 0.864,0 1.512,-0.72 1.512,-1.512 v -47.376 c 0,-0.864 -0.648,-1.512 -1.512,-1.512 z" stroke-width="0" stroke-linejoin="miter" stroke-miterlimit="2" fill="#65a8dc" stroke="#65a8dc" transform="translate(0 30.140000000000043) translate(725.9463124999999 309.43999999999994) scale(0.9) translate(-748.8755 50.4)"></path>
        <path id="path963377" style="font-style:normal;font-weight:normal;font-size:72px;line-height:1;font-family:'Brandmark Sans 25';font-variant-ligatures:normal;text-align:center;text-anchor:middle" d="m 788.96375,-40.248 h 38.88 c 0.864,0 1.584,-0.648 1.584,-1.512 v -7.128 c 0,-0.792 -0.72,-1.512 -1.584,-1.512 h -38.88 c -11.088,0 -20.088,9 -20.088,20.088 v 10.224 c 0,11.088 9,20.088 20.088,20.088 h 38.88 c 0.864,0 1.584,-0.72 1.584,-1.512 V -8.64 c 0,-0.864 -0.72,-1.512 -1.584,-1.512 h -38.88 c -5.472,0 -9.936,-4.464 -9.936,-9.936 v -10.224 c 0,-5.472 4.464,-9.936 9.936,-9.936 z" stroke-width="0" stroke-linejoin="miter" stroke-miterlimit="2" fill="#6cb3e4" stroke="#6cb3e4" transform="translate(0 30.140000000000043) translate(743.9465374999999 309.43999999999994) scale(0.9) translate(-768.87575 50.4)"></path>
      </g>
      <image xlink:href="" id="icon" x="0" y="0" style="display: none;"></image>
    </g>
  </g>
</svg>